<mxfile host="app.diagrams.net" modified="2024-02-02T05:42:02.969Z" agent="Mozilla/5.0 (Windows NT 10.0; Win64; x64) AppleWebKit/537.36 (KHTML, like Gecko) Chrome/121.0.0.0 Safari/537.36" version="23.1.1" etag="awa1WN6agATZzUGaPoHD" type="device">
  <diagram id="C5RBs43oDa-KdzZeNtuy" name="Page-1">
    <mxGraphModel dx="934" dy="408" grid="0" gridSize="10" guides="1" tooltips="1" connect="1" arrows="1" fold="1" page="1" pageScale="1" pageWidth="827" pageHeight="1169" math="0" shadow="0">
      <root>
        <mxCell id="WIyWlLk6GJQsqaUBKTNV-0" />
        <mxCell id="WIyWlLk6GJQsqaUBKTNV-1" parent="WIyWlLk6GJQsqaUBKTNV-0" />
        <mxCell id="Er1T5gEvtv8znH2YNQ-9-7" value="" style="group" vertex="1" connectable="0" parent="WIyWlLk6GJQsqaUBKTNV-1">
          <mxGeometry x="378" y="88" width="136" height="237" as="geometry" />
        </mxCell>
        <mxCell id="Er1T5gEvtv8znH2YNQ-9-1" value="" style="rounded=0;whiteSpace=wrap;html=1;" vertex="1" parent="Er1T5gEvtv8znH2YNQ-9-7">
          <mxGeometry width="136" height="237" as="geometry" />
        </mxCell>
        <mxCell id="Er1T5gEvtv8znH2YNQ-9-2" value="" style="endArrow=none;html=1;rounded=0;exitX=-0.004;exitY=0.096;exitDx=0;exitDy=0;entryX=0.999;entryY=0.088;entryDx=0;entryDy=0;entryPerimeter=0;exitPerimeter=0;" edge="1" parent="Er1T5gEvtv8znH2YNQ-9-7" source="Er1T5gEvtv8znH2YNQ-9-1" target="Er1T5gEvtv8znH2YNQ-9-1">
          <mxGeometry width="50" height="50" relative="1" as="geometry">
            <mxPoint x="433" y="237" as="sourcePoint" />
            <mxPoint x="135" y="37" as="targetPoint" />
          </mxGeometry>
        </mxCell>
        <mxCell id="Er1T5gEvtv8znH2YNQ-9-3" value="admin" style="text;html=1;strokeColor=none;fillColor=none;align=center;verticalAlign=middle;whiteSpace=wrap;rounded=0;" vertex="1" parent="Er1T5gEvtv8znH2YNQ-9-7">
          <mxGeometry x="35" width="60" height="30" as="geometry" />
        </mxCell>
        <mxCell id="Er1T5gEvtv8znH2YNQ-9-4" value="adminid:int&lt;br&gt;username:sring&lt;br&gt;email:string&lt;br&gt;password:string" style="text;html=1;strokeColor=none;fillColor=none;align=left;verticalAlign=middle;whiteSpace=wrap;rounded=0;" vertex="1" parent="Er1T5gEvtv8znH2YNQ-9-7">
          <mxGeometry x="3" y="22" width="115" height="78" as="geometry" />
        </mxCell>
        <mxCell id="Er1T5gEvtv8znH2YNQ-9-5" value="" style="endArrow=none;html=1;rounded=0;entryX=1.002;entryY=0.445;entryDx=0;entryDy=0;entryPerimeter=0;" edge="1" parent="Er1T5gEvtv8znH2YNQ-9-7" target="Er1T5gEvtv8znH2YNQ-9-1">
          <mxGeometry width="50" height="50" relative="1" as="geometry">
            <mxPoint y="105" as="sourcePoint" />
            <mxPoint x="138" y="144" as="targetPoint" />
          </mxGeometry>
        </mxCell>
        <mxCell id="Er1T5gEvtv8znH2YNQ-9-6" value="login()&lt;br&gt;manage providers()&lt;br&gt;manage managers()&lt;br&gt;manage workers()&lt;br&gt;manage clients()&lt;br&gt;verify service request()&lt;br&gt;performance analysis()&lt;br&gt;manage services()" style="text;html=1;strokeColor=none;fillColor=none;align=left;verticalAlign=middle;whiteSpace=wrap;rounded=0;" vertex="1" parent="Er1T5gEvtv8znH2YNQ-9-7">
          <mxGeometry x="1" y="112" width="134" height="119" as="geometry" />
        </mxCell>
        <mxCell id="Er1T5gEvtv8znH2YNQ-9-22" value="" style="group" vertex="1" connectable="0" parent="WIyWlLk6GJQsqaUBKTNV-1">
          <mxGeometry x="385" y="563" width="157" height="353" as="geometry" />
        </mxCell>
        <mxCell id="Er1T5gEvtv8znH2YNQ-9-16" value="" style="rounded=0;whiteSpace=wrap;html=1;" vertex="1" parent="Er1T5gEvtv8znH2YNQ-9-22">
          <mxGeometry y="5.82508250825079" width="155.24592269166558" height="347.1749174917493" as="geometry" />
        </mxCell>
        <mxCell id="Er1T5gEvtv8znH2YNQ-9-17" value="" style="endArrow=none;html=1;rounded=0;exitX=-0.004;exitY=0.096;exitDx=0;exitDy=0;entryX=1.003;entryY=0.094;entryDx=0;entryDy=0;entryPerimeter=0;exitPerimeter=0;" edge="1" parent="Er1T5gEvtv8znH2YNQ-9-22" source="Er1T5gEvtv8znH2YNQ-9-16" target="Er1T5gEvtv8znH2YNQ-9-16">
          <mxGeometry width="50" height="50" relative="1" as="geometry">
            <mxPoint x="494.27562151096464" y="427.5610561056106" as="sourcePoint" />
            <mxPoint x="154.10440855422686" y="71.66571973653055" as="targetPoint" />
          </mxGeometry>
        </mxCell>
        <mxCell id="Er1T5gEvtv8znH2YNQ-9-18" value="manger" style="text;html=1;strokeColor=none;fillColor=none;align=center;verticalAlign=middle;whiteSpace=wrap;rounded=0;" vertex="1" parent="Er1T5gEvtv8znH2YNQ-9-22">
          <mxGeometry x="39.95299481035511" width="68.49084824632305" height="53.384300455362" as="geometry" />
        </mxCell>
        <mxCell id="Er1T5gEvtv8znH2YNQ-9-19" value="managerid:int&lt;br&gt;providerid:int&lt;br&gt;branchid:int&lt;br&gt;username:sring&lt;br&gt;first name:string&lt;br style=&quot;border-color: var(--border-color);&quot;&gt;last name:string&lt;br style=&quot;border-color: var(--border-color);&quot;&gt;email:string&lt;br&gt;password:string&lt;br&gt;district:string&lt;br&gt;service type:string&lt;br&gt;phone:long&lt;br&gt;address:string" style="text;html=1;strokeColor=none;fillColor=none;align=left;verticalAlign=middle;whiteSpace=wrap;rounded=0;" vertex="1" parent="Er1T5gEvtv8znH2YNQ-9-22">
          <mxGeometry x="3.6091421600102738" y="70.00446153846154" width="114.79125465519455" height="122.57246153846154" as="geometry" />
        </mxCell>
        <mxCell id="Er1T5gEvtv8znH2YNQ-9-20" value="" style="endArrow=none;html=1;rounded=0;" edge="1" parent="Er1T5gEvtv8znH2YNQ-9-22">
          <mxGeometry width="50" height="50" relative="1" as="geometry">
            <mxPoint x="1" y="218" as="sourcePoint" />
            <mxPoint x="156.1640130987543" y="218.3915384615385" as="targetPoint" />
          </mxGeometry>
        </mxCell>
        <mxCell id="Er1T5gEvtv8znH2YNQ-9-21" value="login()&lt;br&gt;register()&lt;br&gt;manage workers()&lt;br&gt;verify work request()&lt;br&gt;assign worker()&lt;br&gt;worker analysis()&lt;br&gt;respond to feedbacks()&lt;br&gt;payment for workers()&lt;br&gt;booking calender()" style="text;html=1;strokeColor=none;fillColor=none;align=left;verticalAlign=middle;whiteSpace=wrap;rounded=0;" vertex="1" parent="Er1T5gEvtv8znH2YNQ-9-22">
          <mxGeometry x="4.03236162835495" y="223.74769230769232" width="152.96763837164505" height="125.28784615384616" as="geometry" />
        </mxCell>
        <mxCell id="Er1T5gEvtv8znH2YNQ-9-23" value="" style="group" vertex="1" connectable="0" parent="WIyWlLk6GJQsqaUBKTNV-1">
          <mxGeometry x="605" y="176" width="157" height="302" as="geometry" />
        </mxCell>
        <mxCell id="Er1T5gEvtv8znH2YNQ-9-9" value="" style="rounded=0;whiteSpace=wrap;html=1;container=0;" vertex="1" parent="Er1T5gEvtv8znH2YNQ-9-23">
          <mxGeometry y="4.983498349834968" width="157" height="297.016501650165" as="geometry" />
        </mxCell>
        <mxCell id="Er1T5gEvtv8znH2YNQ-9-10" value="" style="endArrow=none;html=1;rounded=0;exitX=-0.004;exitY=0.096;exitDx=0;exitDy=0;entryX=0.999;entryY=0.088;entryDx=0;entryDy=0;entryPerimeter=0;exitPerimeter=0;" edge="1" parent="Er1T5gEvtv8znH2YNQ-9-23" source="Er1T5gEvtv8znH2YNQ-9-9" target="Er1T5gEvtv8znH2YNQ-9-9">
          <mxGeometry width="50" height="50" relative="1" as="geometry">
            <mxPoint x="499.86029411764696" y="365.78877887788786" as="sourcePoint" />
            <mxPoint x="155.84558823529412" y="61.31174889640863" as="targetPoint" />
          </mxGeometry>
        </mxCell>
        <mxCell id="Er1T5gEvtv8znH2YNQ-9-11" value="provider" style="text;html=1;strokeColor=none;fillColor=none;align=center;verticalAlign=middle;whiteSpace=wrap;rounded=0;container=0;" vertex="1" parent="Er1T5gEvtv8znH2YNQ-9-23">
          <mxGeometry x="40.40441176470588" width="69.26470588235293" height="45.67155449722189" as="geometry" />
        </mxCell>
        <mxCell id="Er1T5gEvtv8znH2YNQ-9-12" value="providerid:int&lt;br&gt;username:sring&lt;br&gt;first name:string&lt;br style=&quot;border-color: var(--border-color);&quot;&gt;last name:string&lt;br style=&quot;border-color: var(--border-color);&quot;&gt;email:string&lt;br&gt;password:string&lt;br&gt;company name:string&lt;br&gt;phone:long&lt;br&gt;address:string" style="text;html=1;strokeColor=none;fillColor=none;align=left;verticalAlign=middle;whiteSpace=wrap;rounded=0;container=0;" vertex="1" parent="Er1T5gEvtv8znH2YNQ-9-23">
          <mxGeometry x="3.4632352941176263" y="38.475971647797664" width="132.75735294117646" height="118.7460416927769" as="geometry" />
        </mxCell>
        <mxCell id="Er1T5gEvtv8znH2YNQ-9-13" value="" style="endArrow=none;html=1;rounded=0;entryX=1;entryY=0.5;entryDx=0;entryDy=0;exitX=0;exitY=0.5;exitDx=0;exitDy=0;" edge="1" parent="Er1T5gEvtv8znH2YNQ-9-23">
          <mxGeometry width="50" height="50" relative="1" as="geometry">
            <mxPoint x="-2.2737367544323206e-13" y="170.00174917491745" as="sourcePoint" />
            <mxPoint x="157" y="170.00174917491745" as="targetPoint" />
          </mxGeometry>
        </mxCell>
        <mxCell id="Er1T5gEvtv8znH2YNQ-9-14" value="login()&lt;br&gt;register()&lt;br&gt;manage managers()&lt;br&gt;manage workers()&lt;br&gt;request new service()&lt;br&gt;branch analysis()&lt;br&gt;manage services()&lt;br&gt;payment for managers()" style="text;html=1;strokeColor=none;fillColor=none;align=left;verticalAlign=middle;whiteSpace=wrap;rounded=0;container=0;" vertex="1" parent="Er1T5gEvtv8znH2YNQ-9-23">
          <mxGeometry x="2.302012987012982" y="175.99544554455443" width="154.69597402597404" height="128.5742574257426" as="geometry" />
        </mxCell>
        <mxCell id="Er1T5gEvtv8znH2YNQ-9-37" value="" style="group" vertex="1" connectable="0" parent="WIyWlLk6GJQsqaUBKTNV-1">
          <mxGeometry x="622" y="532" width="154" height="329.51881756756745" as="geometry" />
        </mxCell>
        <mxCell id="Er1T5gEvtv8znH2YNQ-9-25" value="" style="rounded=0;whiteSpace=wrap;html=1;" vertex="1" parent="Er1T5gEvtv8znH2YNQ-9-37">
          <mxGeometry x="1.1368683772161594e-13" y="5.363036303630353" width="153.9999999999999" height="319.63696369636966" as="geometry" />
        </mxCell>
        <mxCell id="Er1T5gEvtv8znH2YNQ-9-26" value="" style="endArrow=none;html=1;rounded=0;exitX=-0.004;exitY=0.096;exitDx=0;exitDy=0;entryX=0.999;entryY=0.088;entryDx=0;entryDy=0;entryPerimeter=0;exitPerimeter=0;" edge="1" parent="Er1T5gEvtv8znH2YNQ-9-37" source="Er1T5gEvtv8znH2YNQ-9-25" target="Er1T5gEvtv8znH2YNQ-9-25">
          <mxGeometry width="50" height="50" relative="1" as="geometry">
            <mxPoint x="490.3088235294114" y="393.64686468646863" as="sourcePoint" />
            <mxPoint x="152.86764705882354" y="65.98118672626748" as="targetPoint" />
          </mxGeometry>
        </mxCell>
        <mxCell id="Er1T5gEvtv8znH2YNQ-9-29" value="" style="endArrow=none;html=1;rounded=0;entryX=1;entryY=0.5;entryDx=0;entryDy=0;exitX=0;exitY=0.5;exitDx=0;exitDy=0;" edge="1" parent="Er1T5gEvtv8znH2YNQ-9-37">
          <mxGeometry width="50" height="50" relative="1" as="geometry">
            <mxPoint x="1.13" y="216.0047786001073" as="sourcePoint" />
            <mxPoint x="155.13" y="216.0047786001073" as="targetPoint" />
          </mxGeometry>
        </mxCell>
        <mxCell id="Er1T5gEvtv8znH2YNQ-9-45" value="" style="group" vertex="1" connectable="0" parent="Er1T5gEvtv8znH2YNQ-9-37">
          <mxGeometry x="1.1300000000001083" width="151.7399999999999" height="329.51881756756745" as="geometry" />
        </mxCell>
        <mxCell id="Er1T5gEvtv8znH2YNQ-9-27" value="worker" style="text;html=1;strokeColor=none;fillColor=none;align=center;verticalAlign=middle;whiteSpace=wrap;rounded=0;" vertex="1" parent="Er1T5gEvtv8znH2YNQ-9-45">
          <mxGeometry x="38.50235294117644" width="67.94117647058818" height="49.14985169403016" as="geometry" />
        </mxCell>
        <mxCell id="Er1T5gEvtv8znH2YNQ-9-28" value="worrkerid:int&lt;br&gt;providerid:int&lt;br style=&quot;border-color: var(--border-color);&quot;&gt;branchid:int&lt;br&gt;username:sring&lt;br&gt;first name:string&lt;br style=&quot;border-color: var(--border-color);&quot;&gt;last name:string&lt;br&gt;email:string&lt;br&gt;password:string&lt;br&gt;district:string&lt;br&gt;phone:long&lt;br&gt;address:string&lt;br&gt;service type:string" style="text;html=1;strokeColor=none;fillColor=none;align=left;verticalAlign=middle;whiteSpace=wrap;rounded=0;" vertex="1" parent="Er1T5gEvtv8znH2YNQ-9-45">
          <mxGeometry x="1.6700000000000146" y="53.00094594594593" width="141.59999999999988" height="144.9104729729729" as="geometry" />
        </mxCell>
        <mxCell id="Er1T5gEvtv8znH2YNQ-9-30" value="login()&lt;br&gt;register()&lt;br&gt;generate work report()&lt;br&gt;leave application()&lt;br&gt;work analysis()&lt;br&gt;wallet()&lt;br&gt;approve or reject work()" style="text;html=1;strokeColor=none;fillColor=none;align=left;verticalAlign=middle;whiteSpace=wrap;rounded=0;" vertex="1" parent="Er1T5gEvtv8znH2YNQ-9-45">
          <mxGeometry y="214.001081081081" width="151.7399999999999" height="115.51773648648644" as="geometry" />
        </mxCell>
        <mxCell id="Er1T5gEvtv8znH2YNQ-9-38" value="" style="group" vertex="1" connectable="0" parent="WIyWlLk6GJQsqaUBKTNV-1">
          <mxGeometry x="152" y="250" width="154.54000000000002" height="431" as="geometry" />
        </mxCell>
        <mxCell id="Er1T5gEvtv8znH2YNQ-9-39" value="" style="rounded=0;whiteSpace=wrap;html=1;" vertex="1" parent="Er1T5gEvtv8znH2YNQ-9-38">
          <mxGeometry y="7.11" width="154" height="392.89" as="geometry" />
        </mxCell>
        <mxCell id="Er1T5gEvtv8znH2YNQ-9-40" value="" style="endArrow=none;html=1;rounded=0;exitX=-0.004;exitY=0.096;exitDx=0;exitDy=0;entryX=0.999;entryY=0.088;entryDx=0;entryDy=0;entryPerimeter=0;exitPerimeter=0;" edge="1" parent="Er1T5gEvtv8znH2YNQ-9-38" source="Er1T5gEvtv8znH2YNQ-9-39" target="Er1T5gEvtv8znH2YNQ-9-39">
          <mxGeometry width="50" height="50" relative="1" as="geometry">
            <mxPoint x="490.3088235294114" y="522.036303630363" as="sourcePoint" />
            <mxPoint x="152.86764705882354" y="87.50120455083473" as="targetPoint" />
          </mxGeometry>
        </mxCell>
        <mxCell id="Er1T5gEvtv8znH2YNQ-9-41" value="client" style="text;html=1;strokeColor=none;fillColor=none;align=center;verticalAlign=middle;whiteSpace=wrap;rounded=0;" vertex="1" parent="Er1T5gEvtv8znH2YNQ-9-38">
          <mxGeometry x="39.63235294117655" width="67.94117647058818" height="65.18026486192923" as="geometry" />
        </mxCell>
        <mxCell id="Er1T5gEvtv8znH2YNQ-9-42" value="userid:int&lt;br&gt;username:sring&lt;br&gt;first name:string&lt;br&gt;last name:string&lt;br&gt;email:string&lt;br&gt;password:string&lt;br&gt;district:string&lt;br&gt;phone:long&lt;br&gt;address:string" style="text;html=1;strokeColor=none;fillColor=none;align=left;verticalAlign=middle;whiteSpace=wrap;rounded=0;" vertex="1" parent="Er1T5gEvtv8znH2YNQ-9-38">
          <mxGeometry x="2.800000000000123" y="20.00324324324322" width="141.59999999999988" height="192.17358108108098" as="geometry" />
        </mxCell>
        <mxCell id="Er1T5gEvtv8znH2YNQ-9-43" value="" style="endArrow=none;html=1;rounded=0;entryX=1;entryY=0.5;entryDx=0;entryDy=0;exitX=0;exitY=0.5;exitDx=0;exitDy=0;" edge="1" parent="Er1T5gEvtv8znH2YNQ-9-38">
          <mxGeometry width="50" height="50" relative="1" as="geometry">
            <mxPoint x="-1.13" y="191.00107562044997" as="sourcePoint" />
            <mxPoint x="152.87" y="191.00107562044997" as="targetPoint" />
          </mxGeometry>
        </mxCell>
        <mxCell id="Er1T5gEvtv8znH2YNQ-9-44" value="login()&lt;br&gt;register()&lt;br&gt;book service()&lt;br&gt;manage account()&lt;br&gt;reschedule booking()&lt;br&gt;request for new service()&lt;br&gt;browse service()&lt;br&gt;search provider()&lt;br&gt;verify workreport()&lt;br&gt;download workreport()&lt;br&gt;rating and feedback()&lt;br&gt;payment()&lt;br&gt;booking history()" style="text;html=1;strokeColor=none;fillColor=none;align=left;verticalAlign=middle;whiteSpace=wrap;rounded=0;" vertex="1" parent="Er1T5gEvtv8znH2YNQ-9-38">
          <mxGeometry x="2.8" y="181" width="151.74" height="221" as="geometry" />
        </mxCell>
        <mxCell id="Er1T5gEvtv8znH2YNQ-9-47" style="edgeStyle=orthogonalEdgeStyle;rounded=0;orthogonalLoop=1;jettySize=auto;html=1;entryX=0;entryY=0.25;entryDx=0;entryDy=0;" edge="1" parent="WIyWlLk6GJQsqaUBKTNV-1" target="Er1T5gEvtv8znH2YNQ-9-12">
          <mxGeometry relative="1" as="geometry">
            <mxPoint x="514" y="148" as="sourcePoint" />
          </mxGeometry>
        </mxCell>
        <mxCell id="Er1T5gEvtv8znH2YNQ-9-49" style="edgeStyle=orthogonalEdgeStyle;rounded=0;orthogonalLoop=1;jettySize=auto;html=1;exitX=0;exitY=0.5;exitDx=0;exitDy=0;entryX=1;entryY=0.263;entryDx=0;entryDy=0;entryPerimeter=0;" edge="1" parent="WIyWlLk6GJQsqaUBKTNV-1" source="Er1T5gEvtv8znH2YNQ-9-4" target="Er1T5gEvtv8znH2YNQ-9-39">
          <mxGeometry relative="1" as="geometry">
            <Array as="points">
              <mxPoint x="335" y="149" />
              <mxPoint x="335" y="360" />
            </Array>
          </mxGeometry>
        </mxCell>
        <mxCell id="Er1T5gEvtv8znH2YNQ-9-51" style="edgeStyle=orthogonalEdgeStyle;rounded=0;orthogonalLoop=1;jettySize=auto;html=1;entryX=0;entryY=0.5;entryDx=0;entryDy=0;exitX=0;exitY=0.75;exitDx=0;exitDy=0;" edge="1" parent="WIyWlLk6GJQsqaUBKTNV-1" source="Er1T5gEvtv8znH2YNQ-9-6" target="Er1T5gEvtv8znH2YNQ-9-19">
          <mxGeometry relative="1" as="geometry" />
        </mxCell>
        <mxCell id="Er1T5gEvtv8znH2YNQ-9-52" style="edgeStyle=orthogonalEdgeStyle;rounded=0;orthogonalLoop=1;jettySize=auto;html=1;entryX=0;entryY=0.5;entryDx=0;entryDy=0;" edge="1" parent="WIyWlLk6GJQsqaUBKTNV-1" source="Er1T5gEvtv8znH2YNQ-9-6" target="Er1T5gEvtv8znH2YNQ-9-28">
          <mxGeometry relative="1" as="geometry">
            <Array as="points">
              <mxPoint x="562" y="260" />
              <mxPoint x="562" y="658" />
            </Array>
          </mxGeometry>
        </mxCell>
        <mxCell id="Er1T5gEvtv8znH2YNQ-9-53" style="edgeStyle=orthogonalEdgeStyle;rounded=0;orthogonalLoop=1;jettySize=auto;html=1;" edge="1" parent="WIyWlLk6GJQsqaUBKTNV-1" source="Er1T5gEvtv8znH2YNQ-9-12">
          <mxGeometry relative="1" as="geometry">
            <mxPoint x="540" y="613" as="targetPoint" />
            <Array as="points">
              <mxPoint x="574" y="266" />
              <mxPoint x="574" y="613" />
              <mxPoint x="540" y="613" />
            </Array>
          </mxGeometry>
        </mxCell>
        <mxCell id="Er1T5gEvtv8znH2YNQ-9-55" value="" style="edgeStyle=orthogonalEdgeStyle;rounded=0;orthogonalLoop=1;jettySize=auto;html=1;" edge="1" parent="WIyWlLk6GJQsqaUBKTNV-1" source="Er1T5gEvtv8znH2YNQ-9-16">
          <mxGeometry relative="1" as="geometry">
            <mxPoint x="619" y="728" as="targetPoint" />
            <Array as="points">
              <mxPoint x="567" y="728" />
              <mxPoint x="567" y="728" />
            </Array>
          </mxGeometry>
        </mxCell>
        <mxCell id="Er1T5gEvtv8znH2YNQ-9-56" value="1" style="text;html=1;align=center;verticalAlign=middle;resizable=0;points=[];autosize=1;strokeColor=none;fillColor=none;" vertex="1" parent="WIyWlLk6GJQsqaUBKTNV-1">
          <mxGeometry x="519" y="117" width="25" height="26" as="geometry" />
        </mxCell>
        <mxCell id="Er1T5gEvtv8znH2YNQ-9-57" value="1" style="text;html=1;align=center;verticalAlign=middle;resizable=0;points=[];autosize=1;strokeColor=none;fillColor=none;" vertex="1" parent="WIyWlLk6GJQsqaUBKTNV-1">
          <mxGeometry x="514" y="227" width="25" height="26" as="geometry" />
        </mxCell>
        <mxCell id="Er1T5gEvtv8znH2YNQ-9-58" value="1" style="text;html=1;align=center;verticalAlign=middle;resizable=0;points=[];autosize=1;strokeColor=none;fillColor=none;" vertex="1" parent="WIyWlLk6GJQsqaUBKTNV-1">
          <mxGeometry x="351" y="127" width="25" height="26" as="geometry" />
        </mxCell>
        <mxCell id="Er1T5gEvtv8znH2YNQ-9-59" value="1" style="text;html=1;align=center;verticalAlign=middle;resizable=0;points=[];autosize=1;strokeColor=none;fillColor=none;" vertex="1" parent="WIyWlLk6GJQsqaUBKTNV-1">
          <mxGeometry x="353" y="268" width="25" height="26" as="geometry" />
        </mxCell>
        <mxCell id="Er1T5gEvtv8znH2YNQ-9-60" value="n&lt;br&gt;" style="text;html=1;align=center;verticalAlign=middle;resizable=0;points=[];autosize=1;strokeColor=none;fillColor=none;" vertex="1" parent="WIyWlLk6GJQsqaUBKTNV-1">
          <mxGeometry x="576" y="216" width="25" height="26" as="geometry" />
        </mxCell>
        <mxCell id="Er1T5gEvtv8znH2YNQ-9-61" value="n&lt;br&gt;" style="text;html=1;align=center;verticalAlign=middle;resizable=0;points=[];autosize=1;strokeColor=none;fillColor=none;" vertex="1" parent="WIyWlLk6GJQsqaUBKTNV-1">
          <mxGeometry x="306.54" y="333" width="25" height="26" as="geometry" />
        </mxCell>
        <mxCell id="Er1T5gEvtv8znH2YNQ-9-62" value="n&lt;br&gt;" style="text;html=1;align=center;verticalAlign=middle;resizable=0;points=[];autosize=1;strokeColor=none;fillColor=none;" vertex="1" parent="WIyWlLk6GJQsqaUBKTNV-1">
          <mxGeometry x="541" y="585" width="25" height="26" as="geometry" />
        </mxCell>
        <mxCell id="Er1T5gEvtv8znH2YNQ-9-63" value="n&lt;br&gt;" style="text;html=1;align=center;verticalAlign=middle;resizable=0;points=[];autosize=1;strokeColor=none;fillColor=none;" vertex="1" parent="WIyWlLk6GJQsqaUBKTNV-1">
          <mxGeometry x="591" y="630" width="25" height="26" as="geometry" />
        </mxCell>
        <mxCell id="Er1T5gEvtv8znH2YNQ-9-65" value="n&lt;br&gt;" style="text;html=1;align=center;verticalAlign=middle;resizable=0;points=[];autosize=1;strokeColor=none;fillColor=none;" vertex="1" parent="WIyWlLk6GJQsqaUBKTNV-1">
          <mxGeometry x="597" y="703" width="25" height="26" as="geometry" />
        </mxCell>
        <mxCell id="Er1T5gEvtv8znH2YNQ-9-66" value="1" style="text;html=1;align=center;verticalAlign=middle;resizable=0;points=[];autosize=1;strokeColor=none;fillColor=none;" vertex="1" parent="WIyWlLk6GJQsqaUBKTNV-1">
          <mxGeometry x="586" y="264" width="25" height="26" as="geometry" />
        </mxCell>
        <mxCell id="Er1T5gEvtv8znH2YNQ-9-67" value="1" style="text;html=1;align=center;verticalAlign=middle;resizable=0;points=[];autosize=1;strokeColor=none;fillColor=none;" vertex="1" parent="WIyWlLk6GJQsqaUBKTNV-1">
          <mxGeometry x="537" y="703" width="25" height="26" as="geometry" />
        </mxCell>
        <mxCell id="Er1T5gEvtv8znH2YNQ-9-68" value="n&lt;br&gt;" style="text;html=1;align=center;verticalAlign=middle;resizable=0;points=[];autosize=1;strokeColor=none;fillColor=none;" vertex="1" parent="WIyWlLk6GJQsqaUBKTNV-1">
          <mxGeometry x="360" y="649" width="25" height="26" as="geometry" />
        </mxCell>
      </root>
    </mxGraphModel>
  </diagram>
</mxfile>
